<?xml version="1.0" encoding="utf-8"?>
<!-- Generator: Adobe Illustrator 21.0.0, SVG Export Plug-In . SVG Version: 6.00 Build 0)  -->
<svg version="1.1" id="Layer_1" xmlns="http://www.w3.org/2000/svg" xmlns:xlink="http://www.w3.org/1999/xlink" x="0px" y="0px"
	 viewBox="0 0 128 72" style="enable-background:new 0 0 128 72;" xml:space="preserve">
<title>Artboard 29</title>
<path d="M32,66c0,3.3,2.7,6,6,6s6-2.7,6-6V54h4v6c0,3.3,2.7,6,6,6s6-2.7,6-6v-6h4c0,3.3,2.7,6,6,6s6-2.7,6-6v-8h52v-4H76V30h52v-4
	H76v-8c0-3.3-2.7-6-6-6s-6,2.7-6,6h-4v-6c0-3.3-2.7-6-6-6s-6,2.7-6,6v6h-4V6c0-3.3-2.7-6-6-6s-6,2.7-6,6v12h-4v-6c0-3.3-2.7-6-6-6
	s-6,2.7-6,6v6h-4c0-3.3-2.7-6-6-6s-6,2.7-6,6v36c0,3.3,2.7,6,6,6s6-2.7,6-6h4v6c0,3.3,2.7,6,6,6s6-2.7,6-6v-6h4V66z M70,16
	c1.1,0,2,0.9,2,2v36c0,1.1-0.9,2-2,2s-2-0.9-2-2V18C68,16.9,68.9,16,70,16z M64,22v28h-4V22H64z M54,10c1.1,0,2,0.9,2,2v48
	c0,1.1-0.9,2-2,2s-2-0.9-2-2V12C52,10.9,52.9,10,54,10z M48,22v28h-4V22H48z M38,4c1.1,0,2,0.9,2,2v60c0,1.1-0.9,2-2,2s-2-0.9-2-2V6
	C36,4.9,36.9,4,38,4z M6,56c-1.1,0-2-0.9-2-2V18c0-1.1,0.9-2,2-2s2,0.9,2,2v36C8,55.1,7.1,56,6,56z M12,50V22h4v28H12z M22,62
	c-1.1,0-2-0.9-2-2V12c0-1.1,0.9-2,2-2s2,0.9,2,2v48C24,61.1,23.1,62,22,62z M28,50V22h4v28H28z"/>
</svg>
